<svg width="1200" height="630" viewBox="0 0 1200 630" xmlns="http://www.w3.org/2000/svg"
     font-family="-apple-system, BlinkMacSystemFont, 'Segoe UI', system-ui, sans-serif">
  <defs>
    <linearGradient id="bg" x1="0" y1="0" x2="1200" y2="630" gradientUnits="userSpaceOnUse">
      <stop offset="0%" stop-color="#120826"/>
      <stop offset="100%" stop-color="#2D1057"/>
    </linearGradient>
    <linearGradient id="tl" x1="0" y1="0" x2="1" y2="0">
      <stop offset="0%" stop-color="#7B4DC8"/>
      <stop offset="100%" stop-color="#C9953A"/>
    </linearGradient>
  </defs>

  <!-- Background -->
  <rect width="1200" height="630" fill="url(#bg)"/>
  <circle cx="1120" cy="90" r="260" fill="#5B2D9E" fill-opacity="0.07"/>
  <circle cx="80" cy="570" r="200" fill="#7B4DC8" fill-opacity="0.05"/>

  <!-- Brand badge -->
  <rect x="60" y="34" width="158" height="24" rx="12" fill="#3D1A78" stroke="#5B2D9E" stroke-width="1"/>
  <text x="139" y="50" font-size="11" fill="#A07DE0" text-anchor="middle" font-weight="700" letter-spacing="2">🐾  SOYMANADA</text>

  <!-- Headline -->
  <text x="60" y="106" font-size="50" font-weight="800" fill="#FFFFFF" letter-spacing="-0.5">Del primer commit</text>
  <text x="60" y="163" font-size="50" font-weight="800" fill="#7B4DC8" letter-spacing="-0.5">al lanzamiento.</text>

  <!-- Subtitle -->
  <text x="60" y="194" font-size="14" fill="#A07DE0">Directorio de proveedores para migrantes latinoamericanos · 52 días · 304 commits · React + Supabase + IA</text>

  <!-- Stats pills -->
  <rect x="60" y="210" width="130" height="26" rx="13" fill="#3D1A78" stroke="#5B2D9E" stroke-width="1"/>
  <text x="125" y="227" font-size="12" fill="#C4B0F0" text-anchor="middle" font-weight="500">304 commits</text>

  <rect x="202" y="210" width="94" height="26" rx="13" fill="#3D1A78" stroke="#5B2D9E" stroke-width="1"/>
  <text x="249" y="227" font-size="12" fill="#C4B0F0" text-anchor="middle" font-weight="500">52 días</text>

  <rect x="308" y="210" width="110" height="26" rx="13" fill="#3D1A78" stroke="#5B2D9E" stroke-width="1"/>
  <text x="363" y="227" font-size="12" fill="#C4B0F0" text-anchor="middle" font-weight="500">1 fundador</text>

  <rect x="430" y="210" width="160" height="26" rx="13" fill="#3D1A78" stroke="#5B2D9E" stroke-width="1"/>
  <text x="510" y="227" font-size="12" fill="#C4B0F0" text-anchor="middle" font-weight="500">React + Supabase</text>

  <rect x="602" y="210" width="200" height="26" rx="13" fill="#3D1A78" stroke="#5B2D9E" stroke-width="1"/>
  <text x="702" y="227" font-size="12" fill="#C4B0F0" text-anchor="middle" font-weight="500">Stripe + Mercado Pago</text>

  <!-- Date range, right aligned -->
  <text x="1140" y="222" font-size="12" fill="#5B2D9E" text-anchor="end">12 mar → 2 may 2026</text>

  <!-- Timeline line: card centers at 177, 459, 741, 1023 -->
  <line x1="177" y1="432" x2="1023" y2="432" stroke="url(#tl)" stroke-width="2"/>

  <!-- CARD 1 — Fundación (x=54, w=246, center=177) -->
  <rect x="54" y="252" width="246" height="163" rx="10" fill="#2D1057" fill-opacity="0.85" stroke="#5B2D9E" stroke-width="1"/>
  <rect x="54" y="252" width="246" height="4" rx="2" fill="#7B4DC8"/>
  <circle cx="177" cy="432" r="8" fill="#7B4DC8"/>
  <circle cx="177" cy="432" r="3.5" fill="#FFFFFF"/>
  <text x="177" y="270" font-size="10" fill="#7B4DC8" text-anchor="middle" font-weight="700" letter-spacing="1">12 MAR</text>
  <text x="177" y="287" font-size="10" fill="#A07DE0" text-anchor="middle" font-weight="700" letter-spacing="2">FASE  01</text>
  <text x="177" y="308" font-size="17" fill="#FFFFFF" text-anchor="middle" font-weight="700">Fundación</text>
  <line x1="74" y1="317" x2="280" y2="317" stroke="#5B2D9E" stroke-width="1" stroke-opacity="0.5"/>
  <text x="70" y="333" font-size="12" fill="#C4B0F0">· Primer commit oficial</text>
  <text x="70" y="351" font-size="12" fill="#C4B0F0">· Deploy: soymanada.com</text>
  <text x="70" y="369" font-size="12" fill="#C4B0F0">· Primer proveedor real</text>
  <text x="70" y="387" font-size="12" fill="#C4B0F0">· GA4 + SVG icons</text>
  <text x="70" y="405" font-size="12" fill="#C4B0F0">· Categorías + routing</text>

  <!-- CARD 2 — El Gran Sprint (x=336, w=246, center=459) -->
  <rect x="336" y="252" width="246" height="163" rx="10" fill="#2D1057" fill-opacity="0.85" stroke="#5B2D9E" stroke-width="1"/>
  <rect x="336" y="252" width="246" height="4" rx="2" fill="#8B5DCE"/>
  <circle cx="459" cy="432" r="8" fill="#8B5DCE"/>
  <circle cx="459" cy="432" r="3.5" fill="#FFFFFF"/>
  <text x="459" y="270" font-size="10" fill="#8B5DCE" text-anchor="middle" font-weight="700" letter-spacing="1">25 MAR · 103 commits</text>
  <text x="459" y="287" font-size="10" fill="#A07DE0" text-anchor="middle" font-weight="700" letter-spacing="2">FASE  02</text>
  <text x="459" y="308" font-size="17" fill="#FFFFFF" text-anchor="middle" font-weight="700">El Gran Sprint</text>
  <line x1="356" y1="317" x2="562" y2="317" stroke="#5B2D9E" stroke-width="1" stroke-opacity="0.5"/>
  <text x="352" y="333" font-size="12" fill="#C4B0F0">· Auth Google OAuth</text>
  <text x="352" y="351" font-size="12" fill="#C4B0F0">· Supabase + RLS completo</text>
  <text x="352" y="369" font-size="12" fill="#C4B0F0">· i18n ES / EN / FR-CA</text>
  <text x="352" y="387" font-size="12" fill="#C4B0F0">· Dashboard + Admin panel</text>
  <text x="352" y="405" font-size="12" fill="#C4B0F0">· Comparador remesas</text>

  <!-- CARD 3 — Crecimiento (x=618, w=246, center=741) -->
  <rect x="618" y="252" width="246" height="163" rx="10" fill="#2D1057" fill-opacity="0.85" stroke="#5B2D9E" stroke-width="1"/>
  <rect x="618" y="252" width="246" height="4" rx="2" fill="#A070D8"/>
  <circle cx="741" cy="432" r="8" fill="#A070D8"/>
  <circle cx="741" cy="432" r="3.5" fill="#FFFFFF"/>
  <text x="741" y="270" font-size="10" fill="#A070D8" text-anchor="middle" font-weight="700" letter-spacing="1">ABR · SEMANAS 3-4</text>
  <text x="741" y="287" font-size="10" fill="#A07DE0" text-anchor="middle" font-weight="700" letter-spacing="2">FASE  03</text>
  <text x="741" y="308" font-size="17" fill="#FFFFFF" text-anchor="middle" font-weight="700">Crecimiento</text>
  <line x1="638" y1="317" x2="844" y2="317" stroke="#5B2D9E" stroke-width="1" stroke-opacity="0.5"/>
  <text x="634" y="333" font-size="12" fill="#C4B0F0">· Messaging + booking</text>
  <text x="634" y="351" font-size="12" fill="#C4B0F0">· Emails via Resend</text>
  <text x="634" y="369" font-size="12" fill="#C4B0F0">· Guía primeros pasos</text>
  <text x="634" y="387" font-size="12" fill="#C4B0F0">· ManadaStories carousel</text>
  <text x="634" y="405" font-size="12" fill="#C4B0F0">· SEO + OG meta tags</text>

  <!-- CARD 4 — Confianza y Lanzamiento (x=900, w=246, center=1023) — GOLD -->
  <rect x="900" y="252" width="246" height="163" rx="10" fill="#120800" fill-opacity="0.9" stroke="#C9953A" stroke-width="1" stroke-opacity="0.6"/>
  <rect x="900" y="252" width="246" height="4" rx="2" fill="#C9953A"/>
  <circle cx="1023" cy="432" r="8" fill="#C9953A"/>
  <circle cx="1023" cy="432" r="3.5" fill="#FFFFFF"/>
  <text x="1023" y="270" font-size="10" fill="#C9953A" text-anchor="middle" font-weight="700" letter-spacing="1">ABR-MAY · SEMANA 5-7</text>
  <text x="1023" y="287" font-size="10" fill="#C9953A" text-anchor="middle" font-weight="700" letter-spacing="2">FASE  04</text>
  <text x="1023" y="308" font-size="17" fill="#FFFFFF" text-anchor="middle" font-weight="700">Confianza + Launch</text>
  <line x1="920" y1="317" x2="1126" y2="317" stroke="#C9953A" stroke-width="1" stroke-opacity="0.4"/>
  <text x="916" y="333" font-size="12" fill="#F0D89A">· Opiniones 🐾 + tiers</text>
  <text x="916" y="351" font-size="12" fill="#F0D89A">· Beta 7 proveedores</text>
  <text x="916" y="369" font-size="12" fill="#F0D89A">· Stripe Connect</text>
  <text x="916" y="387" font-size="12" fill="#F0D89A">· Mercado Pago</text>
  <text x="916" y="405" font-size="12" fill="#F0D89A">· Launch público 🚀</text>

  <!-- Footer divider -->
  <line x1="60" y1="458" x2="1140" y2="458" stroke="#3D1A78" stroke-width="1"/>

  <!-- Quote -->
  <text x="60" y="486" font-size="14" fill="#7B4DC8" font-weight="600" font-style="italic">"Cada commit resolviendo una pregunta real de la Manada."</text>

  <!-- Stack label + pills -->
  <text x="60" y="515" font-size="10" fill="#5B2D9E" font-weight="700" letter-spacing="3">STACK</text>

  <rect x="60" y="523" width="76" height="22" rx="11" fill="#1E0A3C" stroke="#5B2D9E" stroke-width="1"/>
  <text x="98" y="538" font-size="11" fill="#C4B0F0" text-anchor="middle">React 18</text>

  <rect x="148" y="523" width="46" height="22" rx="11" fill="#1E0A3C" stroke="#5B2D9E" stroke-width="1"/>
  <text x="171" y="538" font-size="11" fill="#C4B0F0" text-anchor="middle">Vite</text>

  <rect x="206" y="523" width="78" height="22" rx="11" fill="#1E0A3C" stroke="#5B2D9E" stroke-width="1"/>
  <text x="245" y="538" font-size="11" fill="#C4B0F0" text-anchor="middle">Supabase</text>

  <rect x="296" y="523" width="56" height="22" rx="11" fill="#1E0A3C" stroke="#5B2D9E" stroke-width="1"/>
  <text x="324" y="538" font-size="11" fill="#C4B0F0" text-anchor="middle">Stripe</text>

  <rect x="364" y="523" width="114" height="22" rx="11" fill="#1E0A3C" stroke="#5B2D9E" stroke-width="1"/>
  <text x="421" y="538" font-size="11" fill="#C4B0F0" text-anchor="middle">Mercado Pago</text>

  <rect x="490" y="523" width="64" height="22" rx="11" fill="#1E0A3C" stroke="#5B2D9E" stroke-width="1"/>
  <text x="522" y="538" font-size="11" fill="#C4B0F0" text-anchor="middle">i18next</text>

  <rect x="566" y="523" width="54" height="22" rx="11" fill="#1E0A3C" stroke="#5B2D9E" stroke-width="1"/>
  <text x="593" y="538" font-size="11" fill="#C4B0F0" text-anchor="middle">Resend</text>

  <!-- Built with Claude badge -->
  <rect x="856" y="496" width="284" height="56" rx="12" fill="#1E0A3C" stroke="#7B4DC8" stroke-width="1.5"/>
  <polygon points="878,524 887,515 896,524 887,533" fill="#7B4DC8"/>
  <text x="906" y="516" font-size="11" fill="#A07DE0" font-weight="500">Copiloto de código:</text>
  <text x="906" y="537" font-size="16" fill="#FFFFFF" font-weight="800">Claude · Anthropic</text>

  <!-- Bottom -->
  <text x="60" y="590" font-size="12" fill="#3D1A78">#SoyManada  #BuildInPublic  #ReactJS  #Supabase  #Migrantes  #AICode  #Claude</text>
  <text x="1140" y="590" font-size="14" fill="#7B4DC8" text-anchor="end" font-weight="600">soymanada.com</text>

  <!-- Decorative paw bottom right -->
  <circle cx="1130" cy="617" r="14" fill="#2D1057" fill-opacity="0.5"/>
  <circle cx="1107" cy="602" r="7" fill="#2D1057" fill-opacity="0.4"/>
  <circle cx="1121" cy="598" r="7" fill="#2D1057" fill-opacity="0.4"/>
  <circle cx="1137" cy="598" r="7" fill="#2D1057" fill-opacity="0.4"/>
  <circle cx="1151" cy="602" r="7" fill="#2D1057" fill-opacity="0.4"/>
</svg>
