<svg width="1200" height="630" viewBox="0 0 1200 630" xmlns="http://www.w3.org/2000/svg"
     font-family="-apple-system, BlinkMacSystemFont, 'Segoe UI', system-ui, sans-serif">
  <defs>
    <linearGradient id="bg" x1="0" y1="0" x2="1200" y2="630" gradientUnits="userSpaceOnUse">
      <stop offset="0%" stop-color="#120826"/>
      <stop offset="100%" stop-color="#2D1057"/>
    </linearGradient>
    <linearGradient id="ctl" x1="0" y1="0" x2="0" y2="1">
      <stop offset="0%" stop-color="#C9953A"/>
      <stop offset="100%" stop-color="#7B4DC8"/>
    </linearGradient>
    <linearGradient id="div" x1="0" y1="0" x2="0" y2="1">
      <stop offset="0%" stop-color="#5B2D9E" stop-opacity="0"/>
      <stop offset="25%" stop-color="#5B2D9E" stop-opacity="0.7"/>
      <stop offset="75%" stop-color="#5B2D9E" stop-opacity="0.7"/>
      <stop offset="100%" stop-color="#5B2D9E" stop-opacity="0"/>
    </linearGradient>
  </defs>

  <!-- Background -->
  <rect width="1200" height="630" fill="url(#bg)"/>
  <circle cx="1110" cy="85" r="240" fill="#5B2D9E" fill-opacity="0.07"/>
  <circle cx="70" cy="565" r="180" fill="#7B4DC8" fill-opacity="0.05"/>

  <!-- Brand badge -->
  <rect x="60" y="34" width="158" height="24" rx="12" fill="#3D1A78" stroke="#5B2D9E" stroke-width="1"/>
  <text x="139" y="50" font-size="11" fill="#A07DE0" text-anchor="middle" font-weight="700" letter-spacing="2">🐾  SOYMANADA</text>

  <!-- Date range badge (right) -->
  <rect x="972" y="34" width="168" height="24" rx="12" fill="#3D1A78" stroke="#5B2D9E" stroke-width="1"/>
  <text x="1056" y="50" font-size="11" fill="#A07DE0" text-anchor="middle" font-weight="600">Nov 2024 → May 2026</text>

  <!-- HEADLINE -->
  <text x="60" y="100" font-size="46" font-weight="800" fill="#FFFFFF" letter-spacing="-0.5">18 months of community.</text>
  <text x="60" y="152" font-size="46" font-weight="800" fill="#7B4DC8" letter-spacing="-0.5">52 days of code.</text>

  <!-- Subtitle -->
  <text x="60" y="182" font-size="14" fill="#A07DE0">A trust directory for Latin American migrants — community first, code second.</text>

  <!-- Stats pills -->
  <rect x="60" y="197" width="128" height="26" rx="13" fill="#3D1A78" stroke="#5B2D9E" stroke-width="1"/>
  <text x="124" y="214" font-size="12" fill="#C4B0F0" text-anchor="middle" font-weight="500">500+ migrants</text>

  <rect x="200" y="197" width="158" height="26" rx="13" fill="#3D1A78" stroke="#5B2D9E" stroke-width="1"/>
  <text x="279" y="214" font-size="12" fill="#C4B0F0" text-anchor="middle" font-weight="500">18 months community</text>

  <rect x="370" y="197" width="118" height="26" rx="13" fill="#3D1A78" stroke="#5B2D9E" stroke-width="1"/>
  <text x="429" y="214" font-size="12" fill="#C4B0F0" text-anchor="middle" font-weight="500">304 commits</text>

  <rect x="500" y="197" width="112" height="26" rx="13" fill="#3D1A78" stroke="#5B2D9E" stroke-width="1"/>
  <text x="556" y="214" font-size="12" fill="#C4B0F0" text-anchor="middle" font-weight="500">52 days built</text>

  <rect x="624" y="197" width="152" height="26" rx="13" fill="#3D1A78" stroke="#5B2D9E" stroke-width="1"/>
  <text x="700" y="214" font-size="12" fill="#C4B0F0" text-anchor="middle" font-weight="500">1 founder + Claude</text>

  <!-- ========== MAIN SECTION ========== -->

  <!-- Vertical divider at x=494 -->
  <line x1="494" y1="230" x2="494" y2="502" stroke="url(#div)" stroke-width="1.5"/>

  <!-- ===== LEFT: THE COMMUNITY (x=60-473) ===== -->

  <text x="80" y="243" font-size="10" fill="#C9953A" font-weight="700" letter-spacing="3">THE COMMUNITY</text>

  <!-- Vertical timeline line -->
  <line x1="95" y1="263" x2="95" y2="452" stroke="url(#ctl)" stroke-width="2"/>

  <!-- MILESTONE 1: Nov 2024 -->
  <circle cx="95" cy="258" r="7" fill="#C9953A"/>
  <circle cx="95" cy="258" r="3" fill="#FFFFFF"/>
  <text x="113" y="255" font-size="10" fill="#C9953A" font-weight="700" letter-spacing="2">NOV 2024</text>
  <text x="113" y="270" font-size="13" fill="#FFFFFF" font-weight="700">WhatsApp group born</text>
  <text x="113" y="285" font-size="12" fill="#C4B0F0">"Manada a Canadá" — the idea becomes community</text>
  <text x="113" y="300" font-size="12" fill="#C4B0F0">Hispanic migrants supporting each other</text>

  <!-- MILESTONE 2: Feb 24, 2026 -->
  <circle cx="95" cy="350" r="7" fill="#B5803A"/>
  <circle cx="95" cy="350" r="3" fill="#FFFFFF"/>
  <text x="113" y="347" font-size="10" fill="#C9953A" font-weight="700" letter-spacing="2">FEB 24, 2026</text>
  <text x="113" y="362" font-size="13" fill="#FFFFFF" font-weight="700">Provider Discovery</text>
  <text x="113" y="377" font-size="12" fill="#C4B0F0">Interviews · Calls · Forms with real providers</text>
  <text x="113" y="392" font-size="12" fill="#C4B0F0">Pain points and real needs documented</text>

  <!-- MILESTONE 3: Mar 12, 2026 -->
  <circle cx="95" cy="452" r="7" fill="#7B4DC8"/>
  <circle cx="95" cy="452" r="3" fill="#FFFFFF"/>
  <text x="113" y="449" font-size="10" fill="#A07DE0" font-weight="700" letter-spacing="2">MAR 12, 2026</text>
  <text x="113" y="464" font-size="13" fill="#FFFFFF" font-weight="700">First official commit →</text>

  <!-- Community bottom stat -->
  <rect x="68" y="477" width="400" height="26" rx="8" fill="#2D1057" stroke="#C9953A" stroke-width="1" stroke-opacity="0.5"/>
  <text x="268" y="494" font-size="11" fill="#F0D89A" text-anchor="middle" font-weight="500">500+ Latin American migrants · 18 months of real-world intelligence</text>

  <!-- ===== RIGHT: THE CODE (x=516-1140) ===== -->

  <text x="536" y="243" font-size="10" fill="#A07DE0" font-weight="700" letter-spacing="3">THE CODE</text>
  <text x="760" y="243" font-size="10" fill="#5B2D9E" font-weight="600">Mar 12 → May 2, 2026 · Built with Claude</text>

  <!-- 2x2 mini-cards: col1 x=516-807 (w=291), col2 x=828-1119 (w=291) -->
  <!-- row1 y=252-352 (h=100), row2 y=362-462 (h=100) -->

  <!-- CARD A: Foundation -->
  <rect x="516" y="252" width="291" height="100" rx="8" fill="#2D1057" fill-opacity="0.85" stroke="#5B2D9E" stroke-width="1"/>
  <rect x="516" y="252" width="291" height="4" rx="2" fill="#7B4DC8"/>
  <text x="524" y="270" font-size="9" fill="#A07DE0" font-weight="700" letter-spacing="2">PHASE 01 · MAR 12</text>
  <text x="524" y="286" font-size="15" fill="#FFFFFF" font-weight="700">Foundation</text>
  <line x1="524" y1="293" x2="795" y2="293" stroke="#5B2D9E" stroke-width="1" stroke-opacity="0.5"/>
  <text x="524" y="308" font-size="11" fill="#C4B0F0">· Auth + Supabase + RLS</text>
  <text x="524" y="324" font-size="11" fill="#C4B0F0">· i18n: ES / EN / FR-CA</text>
  <text x="524" y="340" font-size="11" fill="#C4B0F0">· First real providers live</text>

  <!-- CARD B: The Big Sprint -->
  <rect x="828" y="252" width="291" height="100" rx="8" fill="#2D1057" fill-opacity="0.85" stroke="#5B2D9E" stroke-width="1"/>
  <rect x="828" y="252" width="291" height="4" rx="2" fill="#8B5DCE"/>
  <text x="836" y="270" font-size="9" fill="#A07DE0" font-weight="700" letter-spacing="2">PHASE 02 · MAR 25</text>
  <text x="836" y="286" font-size="15" fill="#FFFFFF" font-weight="700">The Big Sprint</text>
  <line x1="836" y1="293" x2="1107" y2="293" stroke="#5B2D9E" stroke-width="1" stroke-opacity="0.5"/>
  <text x="836" y="308" font-size="11" fill="#C4B0F0">· 103 commits in 4 days</text>
  <text x="836" y="324" font-size="11" fill="#C4B0F0">· Dashboard + Admin panel</text>
  <text x="836" y="340" font-size="11" fill="#C4B0F0">· Remittances comparator</text>

  <!-- CARD C: Growth -->
  <rect x="516" y="362" width="291" height="100" rx="8" fill="#2D1057" fill-opacity="0.85" stroke="#5B2D9E" stroke-width="1"/>
  <rect x="516" y="362" width="291" height="4" rx="2" fill="#A070D8"/>
  <text x="524" y="380" font-size="9" fill="#A07DE0" font-weight="700" letter-spacing="2">PHASE 03 · APRIL</text>
  <text x="524" y="396" font-size="15" fill="#FFFFFF" font-weight="700">Growth</text>
  <line x1="524" y1="403" x2="795" y2="403" stroke="#5B2D9E" stroke-width="1" stroke-opacity="0.5"/>
  <text x="524" y="418" font-size="11" fill="#C4B0F0">· Messaging + Resend emails</text>
  <text x="524" y="434" font-size="11" fill="#C4B0F0">· SEO + ManadaStories</text>
  <text x="524" y="450" font-size="11" fill="#C4B0F0">· Booking + discovery tools</text>

  <!-- CARD D: Launch (gold) -->
  <rect x="828" y="362" width="291" height="100" rx="8" fill="#120800" fill-opacity="0.9" stroke="#C9953A" stroke-width="1" stroke-opacity="0.7"/>
  <rect x="828" y="362" width="291" height="4" rx="2" fill="#C9953A"/>
  <text x="836" y="380" font-size="9" fill="#C9953A" font-weight="700" letter-spacing="2">PHASE 04 · MAY 2</text>
  <text x="836" y="396" font-size="15" fill="#FFFFFF" font-weight="700">Launch 🚀</text>
  <line x1="836" y1="403" x2="1107" y2="403" stroke="#C9953A" stroke-width="1" stroke-opacity="0.4"/>
  <text x="836" y="418" font-size="11" fill="#F0D89A">· Stripe Connect</text>
  <text x="836" y="434" font-size="11" fill="#F0D89A">· Mercado Pago</text>
  <text x="836" y="450" font-size="11" fill="#F0D89A">· Public directory live</text>

  <!-- Code bottom stat -->
  <rect x="516" y="472" width="603" height="26" rx="8" fill="#1E0A3C" stroke="#7B4DC8" stroke-width="1" stroke-opacity="0.4"/>
  <text x="817" y="489" font-size="11" fill="#A07DE0" text-anchor="middle" font-weight="500">304 commits · React + Supabase + Stripe + Mercado Pago · i18next · Resend</text>

  <!-- ========== FOOTER ========== -->
  <line x1="60" y1="511" x2="1140" y2="511" stroke="#3D1A78" stroke-width="1"/>

  <!-- Quote -->
  <text x="60" y="535" font-size="13" fill="#7B4DC8" font-weight="600" font-style="italic">"The community asks. The AI builds. You decide what ships."</text>

  <!-- AI TEAM panel -->
  <rect x="648" y="513" width="492" height="58" rx="10" fill="#1E0A3C" stroke="#7B4DC8" stroke-width="1.5"/>
  <text x="664" y="527" font-size="9" fill="#5B2D9E" font-weight="700" letter-spacing="3">AI WORKFLOW</text>
  <text x="1130" y="527" font-size="9" fill="#C9953A" font-weight="600" text-anchor="end">Francisco: Product Arbiter</text>
  <line x1="774" y1="533" x2="774" y2="563" stroke="#2D1057" stroke-width="1"/>
  <line x1="894" y1="533" x2="894" y2="563" stroke="#2D1057" stroke-width="1"/>
  <line x1="1014" y1="533" x2="1014" y2="563" stroke="#2D1057" stroke-width="1"/>
  <text x="664" y="547" font-size="11" fill="#A07DE0" font-weight="700">◆ Claude</text>
  <text x="664" y="562" font-size="9" fill="#5B2D9E">strategy · UX · code</text>
  <text x="784" y="547" font-size="11" fill="#FFFFFF" font-weight="600">Perplexity</text>
  <text x="784" y="562" font-size="9" fill="#5B2D9E">research</text>
  <text x="904" y="547" font-size="11" fill="#FFFFFF" font-weight="600">ChatGPT</text>
  <text x="904" y="562" font-size="9" fill="#5B2D9E">ideas · UX writing</text>
  <text x="1024" y="547" font-size="11" fill="#FFFFFF" font-weight="600">Gemini</text>
  <text x="1024" y="562" font-size="9" fill="#5B2D9E">cross-check</text>

  <!-- Bottom row -->
  <text x="60" y="581" font-size="11" fill="#3D1A78">#SoyManada  #BuildInPublic  #CommunityFirst  #ReactJS  #Supabase  #Claude  #LatinAmerica</text>
  <text x="1140" y="581" font-size="13" fill="#7B4DC8" text-anchor="end" font-weight="600">soymanada.com</text>

  <!-- Paw decoration -->
  <circle cx="1130" cy="615" r="12" fill="#2D1057" fill-opacity="0.4"/>
  <circle cx="1110" cy="603" r="6" fill="#2D1057" fill-opacity="0.35"/>
  <circle cx="1122" cy="599" r="6" fill="#2D1057" fill-opacity="0.35"/>
  <circle cx="1136" cy="599" r="6" fill="#2D1057" fill-opacity="0.35"/>
  <circle cx="1148" cy="603" r="6" fill="#2D1057" fill-opacity="0.35"/>
</svg>
